<?xml version="1.0" encoding="UTF-8" standalone="no"?>
<svg
   width="100px"
   height="200px"
   viewBox="0 0 100 200"
   version="1.1"
   id="svg43"
   sodipodi:docname="cat.svg"
   inkscape:version="1.1.1 (3bf5ae0d25, 2021-09-20)"
   xmlns:inkscape="http://www.inkscape.org/namespaces/inkscape"
   xmlns:sodipodi="http://sodipodi.sourceforge.net/DTD/sodipodi-0.dtd"
   xmlns="http://www.w3.org/2000/svg"
   xmlns:svg="http://www.w3.org/2000/svg">
  <defs
     id="defs47" />
  <sodipodi:namedview
     id="namedview45"
     pagecolor="#505050"
     bordercolor="#eeeeee"
     borderopacity="1"
     inkscape:pageshadow="0"
     inkscape:pageopacity="0"
     inkscape:pagecheckerboard="0"
     showgrid="false"
     inkscape:zoom="3.595"
     inkscape:cx="49.930459"
     inkscape:cy="100"
     inkscape:window-width="1920"
     inkscape:window-height="1013"
     inkscape:window-x="1911"
     inkscape:window-y="81"
     inkscape:window-maximized="1"
     inkscape:current-layer="svg43" />
  <g
     id="surface1"
     style="fill:#ffffff;fill-opacity:0.05128205">
    <path
       style="stroke:none;fill-rule:nonzero;fill:#ffffff;fill-opacity:0.05128205"
       d="M 70.730469 0.234375 C 68.082031 1.09375 65.980469 4.25 65.460938 8.171875 C 65.042969 11.28125 66.265625 14.6875 68.140625 15.65625 C 69.179688 16.203125 70.625 16.15625 71.785156 15.5625 C 72.960938 14.953125 74.34375 13.484375 75.03125 12.109375 C 77.097656 7.9375 76.832031 3.34375 74.390625 1.03125 C 73.320312 0.015625 72.15625 -0.234375 70.730469 0.234375 Z M 70.730469 0.234375 "
       id="path2" />
    <path
       style="stroke:none;fill-rule:nonzero;fill:#ffffff;fill-opacity:0.05128205"
       d="M 83.167969 7.640625 C 80.804688 8.4375 78.453125 10.6875 77.203125 13.359375 C 76.621094 14.59375 76.414062 15.59375 76.414062 17.109375 C 76.414062 18.390625 76.457031 18.625 76.90625 19.5625 C 77.769531 21.421875 78.75 21.96875 80.980469 21.828125 C 82.113281 21.765625 82.425781 21.671875 83.585938 21.09375 C 84.671875 20.546875 85.117188 20.1875 86.160156 19.078125 C 87.46875 17.703125 88.140625 16.59375 88.855469 14.609375 C 89.300781 13.375 89.332031 11.390625 88.929688 10.15625 C 88.542969 9 87.394531 7.78125 86.429688 7.53125 C 85.445312 7.265625 84.152344 7.3125 83.167969 7.640625 Z M 83.167969 7.640625 "
       id="path4" />
    <path
       style="stroke:none;fill-rule:nonzero;fill:#ffffff;fill-opacity:0.05128205"
       d="M 56.503906 7.71875 C 54.957031 8.296875 53.554688 10.3125 52.902344 12.890625 C 52.617188 14.015625 52.574219 16.484375 52.828125 17.578125 C 53.320312 19.671875 54.851562 21.90625 56.191406 22.4375 C 57.558594 22.984375 59.390625 22.375 60.566406 20.984375 C 61.917969 19.375 62.648438 17.1875 62.648438 14.765625 C 62.648438 10.625 60.582031 7.484375 57.886719 7.515625 C 57.441406 7.515625 56.816406 7.609375 56.503906 7.71875 Z M 56.503906 7.71875 "
       id="path6" />
    <path
       style="stroke:none;fill-rule:nonzero;fill:#ffffff;fill-opacity:0.05128205"
       d="M 64.359375 22.828125 C 62.304688 23.15625 59.851562 24.265625 57.394531 26 C 54.65625 27.921875 52.128906 30.640625 51.710938 32.078125 C 51.070312 34.328125 51.917969 36.46875 53.855469 37.484375 C 54.867188 38.015625 56.085938 38.34375 58.257812 38.671875 C 60.492188 39.015625 61.667969 39.296875 62.78125 39.765625 C 64.597656 40.546875 65.445312 41.296875 67.648438 44.0625 C 68.585938 45.25 69.613281 46.40625 69.925781 46.625 C 71.679688 47.90625 73.929688 48 75.132812 46.828125 C 76.605469 45.390625 77.261719 42.21875 76.933594 37.96875 C 76.59375 33.34375 76.070312 30.984375 74.820312 28.28125 C 73.898438 26.28125 72.707031 24.9375 71.027344 24.015625 C 69.167969 22.984375 66.398438 22.5 64.359375 22.828125 Z M 64.359375 22.828125 "
       id="path8" />
    <path
       style="stroke:none;fill-rule:nonzero;fill:#ffffff;fill-opacity:0.05128205"
       d="M 85.59375 23.5 C 84.019531 23.90625 82.605469 24.78125 81.234375 26.234375 C 79.539062 28.03125 78.855469 29.421875 78.75 31.25 C 78.660156 32.890625 78.898438 33.71875 79.703125 34.671875 C 80.195312 35.25 80.550781 35.484375 81.207031 35.71875 C 84.582031 36.875 88.914062 34.515625 90.820312 30.484375 C 91.414062 29.21875 91.445312 29.109375 91.445312 27.671875 C 91.445312 26.296875 91.398438 26.09375 90.996094 25.328125 C 90.742188 24.859375 90.3125 24.328125 90.015625 24.109375 C 88.898438 23.34375 87.1875 23.109375 85.59375 23.5 Z M 85.59375 23.5 "
       id="path10" />
    <path
       style="stroke:none;fill-rule:nonzero;fill:#ffffff;fill-opacity:0.05128205"
       d="M 79.613281 67.25 C 78.347656 67.53125 77.695312 67.9375 76.636719 69.0625 C 75.566406 70.1875 74.644531 71.9375 74.167969 73.75 C 73.78125 75.1875 73.78125 78.046875 74.167969 79.21875 C 74.71875 80.953125 75.714844 82.359375 76.710938 82.828125 C 77.679688 83.296875 79.046875 83.21875 80.179688 82.65625 C 83.957031 80.78125 86.027344 74.203125 84.152344 70.046875 C 83.125 67.734375 81.605469 66.8125 79.613281 67.25 Z M 79.613281 67.25 "
       id="path12" />
    <path
       style="stroke:none;fill-rule:nonzero;fill:#ffffff;fill-opacity:0.05128205"
       d="M 92.410156 74.53125 C 89.179688 75.140625 85.847656 78.65625 85.03125 82.296875 C 84.71875 83.703125 84.804688 85.4375 85.269531 86.53125 C 85.757812 87.71875 86.816406 88.671875 87.902344 88.90625 C 91.429688 89.6875 95.59375 86.546875 97.246094 81.859375 C 98.007812 79.75 97.769531 77.40625 96.652344 75.875 C 95.878906 74.8125 94.019531 74.21875 92.410156 74.53125 Z M 92.410156 74.53125 "
       id="path14" />
    <path
       style="stroke:none;fill-rule:nonzero;fill:#ffffff;fill-opacity:0.05128205"
       d="M 65.328125 74.671875 C 62.441406 75.65625 60.476562 80.28125 61.21875 84.296875 C 61.652344 86.5625 62.929688 88.65625 64.375 89.390625 C 64.941406 89.671875 65.222656 89.71875 66.042969 89.65625 C 67.230469 89.5625 68.007812 89.1875 68.839844 88.25 C 70.253906 86.71875 70.980469 84.796875 71.085938 82.34375 C 71.207031 79.890625 70.609375 77.78125 69.316406 76.0625 C 68.527344 75.015625 66.445312 74.28125 65.328125 74.671875 Z M 65.328125 74.671875 "
       id="path16" />
    <path
       style="stroke:none;fill-rule:nonzero;fill:#ffffff;fill-opacity:0.05128205"
       d="M 19.492188 82.546875 C 17.679688 83.09375 16.234375 84.421875 15.222656 86.5 C 13.480469 90.03125 13.46875 93.84375 15.195312 96.546875 C 16.070312 97.9375 16.832031 98.359375 18.378906 98.359375 C 19.390625 98.359375 19.6875 98.28125 20.386719 97.90625 C 24.0625 95.890625 26.070312 89.421875 24.269531 85.375 C 23.230469 83.046875 21.414062 81.96875 19.492188 82.546875 Z M 19.492188 82.546875 "
       id="path18" />
    <path
       style="stroke:none;fill-rule:nonzero;fill:#ffffff;fill-opacity:0.05128205"
       d="M 32.039062 89.90625 C 29.003906 90.71875 25.980469 94.015625 25.148438 97.421875 C 24.792969 98.890625 24.777344 99.921875 25.089844 101.078125 C 25.386719 102.1875 25.953125 103.0625 26.769531 103.671875 C 27.335938 104.09375 27.542969 104.140625 28.734375 104.1875 C 29.761719 104.234375 30.28125 104.171875 31.070312 103.921875 C 33.660156 103.09375 36.027344 100.59375 37.230469 97.421875 C 37.632812 96.359375 37.707031 95.96875 37.707031 94.765625 C 37.722656 93.046875 37.425781 92.03125 36.605469 91.046875 C 36.28125 90.65625 35.730469 90.234375 35.386719 90.078125 C 34.554688 89.734375 32.992188 89.640625 32.039062 89.90625 Z M 32.039062 89.90625 "
       id="path20" />
    <path
       style="stroke:none;fill-rule:nonzero;fill:#ffffff;fill-opacity:0.05128205"
       d="M 5.117188 90.046875 C 2.871094 90.9375 1.160156 94.265625 1.160156 97.734375 C 1.160156 100.1875 1.890625 102.25 3.289062 103.734375 C 4.210938 104.71875 5.058594 105.078125 6.25 104.953125 C 7.351562 104.859375 8.199219 104.359375 9.136719 103.265625 C 10.460938 101.71875 11.160156 99.59375 11.160156 97.109375 C 11.160156 94.6875 10.476562 92.625 9.195312 91.171875 C 8.214844 90.03125 6.398438 89.546875 5.117188 90.046875 Z M 5.117188 90.046875 "
       id="path22" />
    <path
       style="stroke:none;fill-rule:nonzero;fill:#ffffff;fill-opacity:0.05128205"
       d="M 72.023438 90.0625 C 69.0625 90.71875 65.058594 93.25 62.277344 96.203125 C 60.550781 98.03125 60.089844 98.859375 60 100.28125 C 59.882812 102.109375 60.519531 103.46875 61.90625 104.34375 C 63.035156 105.046875 64.179688 105.390625 66.757812 105.78125 C 71.652344 106.5 73.007812 107.28125 76.101562 111.15625 C 77.902344 113.40625 78.332031 113.8125 79.316406 114.28125 C 82.082031 115.59375 84.242188 114.34375 85.132812 110.90625 C 85.460938 109.625 85.535156 107.046875 85.328125 104.453125 C 84.984375 100.203125 84.464844 97.921875 83.257812 95.328125 C 82.097656 92.828125 80.132812 91.09375 77.558594 90.28125 C 76.265625 89.875 73.394531 89.765625 72.023438 90.0625 Z M 72.023438 90.0625 "
       id="path24" />
    <path
       style="stroke:none;fill-rule:nonzero;fill:#ffffff;fill-opacity:0.05128205"
       d="M 93.824219 90.640625 C 91.679688 91.390625 89.941406 92.6875 88.660156 94.5 C 86.207031 97.984375 86.769531 101.96875 89.867188 102.875 C 92.382812 103.609375 95.105469 102.65625 97.410156 100.234375 C 98.363281 99.234375 98.75 98.671875 99.269531 97.578125 C 99.910156 96.234375 99.925781 96.15625 99.910156 94.78125 C 99.894531 92.609375 99.210938 91.390625 97.679688 90.78125 C 96.785156 90.4375 94.65625 90.359375 93.824219 90.640625 Z M 93.824219 90.640625 "
       id="path26" />
    <path
       style="stroke:none;fill-rule:nonzero;fill:#ffffff;fill-opacity:0.05128205"
       d="M 11.605469 105.46875 C 10.148438 105.859375 6.980469 107.546875 5.207031 108.875 C 3.496094 110.15625 1.117188 112.640625 0.535156 113.734375 C -0.535156 115.8125 0.117188 118.453125 2.007812 119.6875 C 2.902344 120.265625 4.195312 120.625 6.992188 121.09375 C 11.992188 121.921875 13.09375 122.5625 16.132812 126.390625 C 18.496094 129.359375 19.464844 130.03125 21.398438 130.015625 C 24.492188 129.984375 25.921875 126.546875 25.445312 120.25 C 24.777344 111.203125 22.410156 106.890625 17.367188 105.515625 C 15.65625 105.046875 13.257812 105.03125 11.605469 105.46875 Z M 11.605469 105.46875 "
       id="path28" />
    <path
       style="stroke:none;fill-rule:nonzero;fill:#ffffff;fill-opacity:0.05128205"
       d="M 34.570312 105.796875 C 32.15625 106.234375 29.804688 107.984375 28.273438 110.484375 C 27.558594 111.640625 27.230469 112.78125 27.230469 114.09375 C 27.230469 116.6875 28.554688 118.125 31.175781 118.375 C 33.839844 118.640625 37.171875 116.609375 38.898438 113.6875 C 40.445312 111.078125 40.402344 108.375 38.808594 106.765625 C 37.945312 105.890625 36.191406 105.484375 34.570312 105.796875 Z M 34.570312 105.796875 "
       id="path30" />
    <path
       style="stroke:none;fill-rule:nonzero;fill:#ffffff;fill-opacity:0.05128205"
       d="M 34.210938 152.640625 C 32.542969 153.328125 31.324219 154.640625 30.34375 156.796875 C 28.632812 160.5625 28.867188 164.578125 30.953125 167.078125 C 31.28125 167.46875 31.832031 167.890625 32.171875 168.046875 C 35.90625 169.625 40.148438 164.75 40.207031 158.828125 C 40.222656 156.65625 39.792969 155.21875 38.675781 153.75 C 37.679688 152.453125 35.804688 151.984375 34.210938 152.640625 Z M 34.210938 152.640625 "
       id="path32" />
    <path
       style="stroke:none;fill-rule:nonzero;fill:#ffffff;fill-opacity:0.05128205"
       d="M 20.789062 159.859375 C 19.882812 160.078125 19.417969 160.40625 18.632812 161.34375 C 17.230469 162.984375 16.472656 165.15625 16.472656 167.578125 C 16.457031 169.953125 17.113281 171.921875 18.394531 173.421875 C 19.332031 174.515625 20.042969 174.875 21.207031 174.875 C 25.402344 174.84375 27.976562 167.703125 25.582031 162.75 C 25.328125 162.21875 24.925781 161.53125 24.671875 161.21875 C 23.882812 160.171875 22.070312 159.53125 20.789062 159.859375 Z M 20.789062 159.859375 "
       id="path34" />
    <path
       style="stroke:none;fill-rule:nonzero;fill:#ffffff;fill-opacity:0.05128205"
       d="M 46.742188 160 C 44.882812 160.71875 43.082031 162.265625 41.816406 164.21875 C 38.957031 168.640625 40.058594 173.890625 43.882812 174.1875 C 47.292969 174.453125 50.96875 171.53125 52.542969 167.3125 C 53.644531 164.359375 52.902344 161.1875 50.832031 160.03125 C 50.089844 159.625 47.753906 159.609375 46.742188 160 Z M 46.742188 160 "
       id="path36" />
    <path
       style="stroke:none;fill-rule:nonzero;fill:#ffffff;fill-opacity:0.05128205"
       d="M 27.945312 175.15625 C 25.90625 175.546875 23.617188 176.625 21.054688 178.40625 C 19.300781 179.625 16.28125 182.671875 15.773438 183.75 C 15.355469 184.625 15.207031 186.265625 15.476562 187.125 C 16.191406 189.421875 17.738281 190.28125 22.335938 191 C 27.113281 191.75 28.378906 192.46875 31.429688 196.28125 C 33.257812 198.5625 33.632812 198.9375 34.65625 199.46875 C 35.714844 200.015625 37.410156 200.09375 38.230469 199.625 C 40.609375 198.28125 41.367188 194.015625 40.460938 187.1875 C 39.894531 182.84375 38.75 179.921875 36.832031 177.875 C 35.699219 176.671875 34.300781 175.828125 32.664062 175.390625 C 31.605469 175.09375 28.929688 174.953125 27.945312 175.15625 Z M 27.945312 175.15625 "
       id="path38" />
    <path
       style="stroke:none;fill-rule:nonzero;fill:#ffffff;fill-opacity:0.05128205"
       d="M 49.152344 175.859375 C 46.980469 176.484375 44.851562 178.234375 43.46875 180.546875 C 42.097656 182.8125 42.230469 185.8125 43.765625 187.265625 C 45.296875 188.703125 48.480469 188.59375 51.011719 187 C 52.796875 185.859375 54.597656 183.484375 55.117188 181.578125 C 55.832031 178.984375 54.882812 176.578125 52.84375 175.890625 C 51.890625 175.5625 50.238281 175.5625 49.152344 175.859375 Z M 49.152344 175.859375 "
       id="path40" />
  </g>
</svg>
